<?xml version="1.0" encoding="utf-8"?>
<!-- Generator: Adobe Illustrator 22.0.1, SVG Export Plug-In . SVG Version: 6.00 Build 0)  -->
<svg version="1.1" id="Layer_1" xmlns="http://www.w3.org/2000/svg" xmlns:xlink="http://www.w3.org/1999/xlink" x="0px" y="0px"
	 viewBox="0 0 512 512" style="enable-background:new 0 0 512 512;" xml:space="preserve">
<style type="text/css">
	.st0{fill:#FFFFFF;}
</style>
<g>
	<path class="st0" d="M393.4,412c83,34.2,73.6,43.7,82.6,100c-146.5,0-292.8,0-439.1,0c-2.7-43.7,8.5-63.7,45.6-81.1
		c11.9-5.6,24.1-10.9,36.2-16.3c-6-19.6-4.8-36.3,9.7-51c17.7-17.9,18.1-39.9,10.2-62.8c-6.5-18.8-14.4-37.5-10.6-58.2
		c2.9-15.6,7.2-31.2,12.3-46.3c8.4-24.9,17.1-49.8,27.2-74c4.4-10.5,11.8-19.9,19.1-28.6c16.6-19.7,37.9-24.8,61.9-20.1
		c10.5,2.1,20.9,4.5,31.4,6.3c22.5,3.9,40.6,14.9,54.8,34.3c16.8,23,32.7,45.8,31.9,77.1c-0.2,6.4,2.8,13.7,6.1,19.5
		c13,23.1,13.3,46.9,5.3,71.6c-2.7,8.7-5.9,17.2-8.3,25.9c-5.6,20.3-3.1,39.4,11.7,54.3C395.1,376.6,398,392.7,393.4,412z"/>
</g>
</svg>
