<?xml version="1.0" encoding="utf-8"?>
<!-- Generator: Adobe Illustrator 22.0.1, SVG Export Plug-In . SVG Version: 6.00 Build 0)  -->
<svg version="1.1" id="Layer_1" xmlns="http://www.w3.org/2000/svg" xmlns:xlink="http://www.w3.org/1999/xlink" x="0px" y="0px"
	 viewBox="0 0 512 512" style="enable-background:new 0 0 512 512;" xml:space="preserve">
<style type="text/css">
	.st0{fill:#FFFFFF;}
</style>
<g id="XMLID_1_">
	<g>
		<path class="st0" d="M476.1,512.5c-147.6,0-294.1,0-440.6,0c0.2-46.9,19.6-72.9,62.8-84.5c10.1-2.7,20.5-4.6,30.3-8.3
			c18-6.8,35.7-14.4,53.3-22c9.5-4.1,13.5-12.6,13.9-22.6c0.7-16.3,4-32.6-9.9-46.6c-5.5-5.6-6.2-16.4-8.6-25
			c-2.1-7.7-1.1-17.5-12.8-18.3c-1.1-0.1-2.8-2.3-3-3.8c-3.4-15.8-7.2-31.6-9.5-47.5c-0.5-3.4,5.1-7.7,6-9
			c-1.6-26.1-5.5-49.6-3.8-72.6c0.9-12.8,11.2-24.9,17.5-37.2c2.8-5.5,4.7-12.8,9.3-15.7c12.9-8.2,26.5-15.5,40.5-21.2
			c9.3-3.8,19.9-5.5,29.9-5.9c9.6-0.3,19.3,1.9,29,3.6c4.7,0.9,9.7,5.3,13.7,4.5c13.6-3.1,21.3,1.7,23.6,13.4
			c8,2.8,18.3,3.2,20.4,7.6c8.9,19.3,24.8,36.1,20.5,60.5c-2.9,16.9-3.6,34.2-4.6,51.4c-0.3,4.9,3.4,10.1,2.8,14.8
			c-2.4,18.6-5.8,37.1-8.8,55.6c-13,0.4-8.9,11.5-11.6,18.7c-4.6,12.2-10.9,23.6-14.7,36c-2.8,8.9-2.7,18.8-3.7,28.4
			c-2.2,20.5,8.5,32.2,26.2,38.1c24.2,8,48.4,16.5,73.2,22.4c31.6,7.5,50.2,25.3,54,58.7C472.4,494.3,474.4,503,476.1,512.5z"/>
	</g>
</g>
</svg>
